<svg xmlns="http://www.w3.org/2000/svg" width="64" height="64" viewBox="0 0 64 64" role="img" aria-label="Brand mark">
  <rect x="3" y="3" width="58" height="58" rx="13" fill="#12279E"></rect>
  <g stroke="#FFFFFF" fill="none" stroke-linecap="round" stroke-linejoin="round">
    <path stroke-width="2.6" d="M22 45 C15 45 11 40 12 34 C8 30 10 21 17 20 C18 13 27 10 32 14 C37 9 47 12 48 19 C54 21 56 29 51 33 C53 39 48 44 42 43 C39 46 33 47 30 44 C28 46 24 46 22 45 Z M40.5 43.2 L43 50"></path>
    <path stroke-width="1.8" opacity="0.95" d="M33 20 L23 27 M33 20 L43 27 M23 27 L29 37 M43 27 L37 35 M29 37 L37 35 M33 20 L37 35"></path>
  </g>
  <g fill="#FFFFFF">
    <circle cx="23" cy="27" r="2.3"></circle><circle cx="43" cy="27" r="2.3"></circle>
    <circle cx="29" cy="37" r="2.3"></circle><circle cx="37" cy="35" r="2.3"></circle>
  </g>
  <circle cx="33" cy="20" r="3.2" fill="#D9821F"></circle>
</svg>
